<svg width="275" height="668" viewBox="0 0 275 668" fill="none" xmlns="http://www.w3.org/2000/svg">
<mask id="path-1-outside-1_54_23" maskUnits="userSpaceOnUse" x="-1" y="-1" width="277" height="670" fill="black">
<rect fill="white" x="-1" y="-1" width="277" height="670"/>
<path d="M106.17 107.942H126.514C125.454 117.69 122.664 126.414 118.143 134.113C113.622 141.813 107.229 147.923 98.9648 152.444C90.7002 156.894 80.387 159.119 68.0254 159.119C58.9837 159.119 50.7544 157.424 43.3374 154.033C35.991 150.643 29.6689 145.839 24.3711 139.623C19.0732 133.336 14.9762 125.813 12.0801 117.054C9.25456 108.224 7.8418 98.4058 7.8418 87.5981V72.2344C7.8418 61.4268 9.25456 51.6434 12.0801 42.8843C14.9762 34.0545 19.1086 26.4963 24.4771 20.2095C29.9162 13.9227 36.4502 9.08398 44.0791 5.69336C51.708 2.30273 60.2905 0.607422 69.8267 0.607422C81.4819 0.607422 91.3359 2.7972 99.3887 7.17676C107.441 11.5563 113.693 17.6312 118.143 25.4014C122.664 33.1009 125.454 42.0366 126.514 52.2085H106.17C105.181 45.0034 103.344 38.8226 100.66 33.666C97.9759 28.4388 94.1615 24.4124 89.2168 21.5869C84.2721 18.7614 77.8088 17.3486 69.8267 17.3486C62.9748 17.3486 56.9352 18.6554 51.708 21.269C46.5514 23.8826 42.2072 27.5911 38.6753 32.3945C35.214 37.1979 32.6004 42.9549 30.8345 49.6655C29.0685 56.3761 28.1855 63.8285 28.1855 72.0225V87.5981C28.1855 95.1564 28.9626 102.256 30.5166 108.896C32.1413 115.535 34.5783 121.363 37.8276 126.378C41.077 131.394 45.2093 135.349 50.2246 138.246C55.2399 141.071 61.1735 142.484 68.0254 142.484C76.7139 142.484 83.6364 141.106 88.793 138.352C93.9495 135.597 97.8346 131.641 100.448 126.484C103.132 121.328 105.04 115.147 106.17 107.942ZM273.158 74.9893V84.7373C273.158 96.3219 271.71 106.706 268.814 115.889C265.918 125.072 261.75 132.877 256.311 139.305C250.872 145.733 244.338 150.643 236.709 154.033C229.151 157.424 220.674 159.119 211.279 159.119C202.167 159.119 193.796 157.424 186.167 154.033C178.609 150.643 172.04 145.733 166.459 139.305C160.95 132.877 156.676 125.072 153.639 115.889C150.601 106.706 149.083 96.3219 149.083 84.7373V74.9893C149.083 63.4046 150.566 53.0562 153.533 43.9438C156.57 34.7609 160.844 26.9554 166.354 20.5273C171.863 14.0286 178.397 9.08398 185.956 5.69336C193.584 2.30273 201.955 0.607422 211.067 0.607422C220.462 0.607422 228.939 2.30273 236.497 5.69336C244.126 9.08398 250.66 14.0286 256.099 20.5273C261.609 26.9554 265.812 34.7609 268.708 43.9438C271.675 53.0562 273.158 63.4046 273.158 74.9893ZM252.92 84.7373V74.7773C252.92 65.5944 251.967 57.471 250.06 50.4072C248.223 43.3434 245.503 37.4098 241.901 32.6064C238.298 27.8031 233.883 24.1652 228.656 21.6929C223.5 19.2205 217.637 17.9844 211.067 17.9844C204.71 17.9844 198.953 19.2205 193.796 21.6929C188.71 24.1652 184.331 27.8031 180.658 32.6064C177.055 37.4098 174.265 43.3434 172.287 50.4072C170.309 57.471 169.32 65.5944 169.32 74.7773V84.7373C169.32 93.9909 170.309 102.185 172.287 109.319C174.265 116.383 177.09 122.352 180.764 127.226C184.507 132.029 188.922 135.667 194.008 138.14C199.165 140.612 204.922 141.848 211.279 141.848C217.919 141.848 223.818 140.612 228.974 138.14C234.131 135.667 238.475 132.029 242.007 127.226C245.609 122.352 248.329 116.383 250.166 109.319C252.002 102.185 252.92 93.9909 252.92 84.7373ZM85.0845 256.727V411H64.9526V256.727H85.0845ZM134.672 256.727V273.468H15.4707V256.727H134.672ZM216.259 256.727V411H196.127V256.727H216.259ZM265.847 256.727V273.468H146.646V256.727H265.847ZM125.03 582.989V592.737C125.03 604.322 123.582 614.706 120.686 623.889C117.79 633.072 113.622 640.877 108.183 647.305C102.744 653.733 96.21 658.643 88.5811 662.033C81.0228 665.424 72.5462 667.119 63.1514 667.119C54.0391 667.119 45.6685 665.424 38.0396 662.033C30.4813 658.643 23.9119 653.733 18.3315 647.305C12.8218 640.877 8.54818 633.072 5.51074 623.889C2.47331 614.706 0.95459 604.322 0.95459 592.737V582.989C0.95459 571.405 2.43799 561.056 5.40479 551.944C8.44222 542.761 12.7158 534.955 18.2256 528.527C23.7354 522.029 30.2694 517.084 37.8276 513.693C45.4565 510.303 53.8271 508.607 62.9395 508.607C72.3343 508.607 80.8109 510.303 88.3691 513.693C95.998 517.084 102.532 522.029 107.971 528.527C113.481 534.955 117.684 542.761 120.58 551.944C123.547 561.056 125.03 571.405 125.03 582.989ZM104.792 592.737V582.777C104.792 573.594 103.839 565.471 101.932 558.407C100.095 551.343 97.3755 545.41 93.7729 540.606C90.1704 535.803 85.7555 532.165 80.5283 529.693C75.3717 527.221 69.5088 525.984 62.9395 525.984C56.582 525.984 50.825 527.221 45.6685 529.693C40.5825 532.165 36.203 535.803 32.5298 540.606C28.9272 545.41 26.137 551.343 24.1592 558.407C22.1813 565.471 21.1924 573.594 21.1924 582.777V592.737C21.1924 601.991 22.1813 610.185 24.1592 617.319C26.137 624.383 28.9626 630.352 32.6357 635.226C36.3796 640.029 40.7944 643.667 45.8804 646.14C51.0369 648.612 56.7939 649.848 63.1514 649.848C69.7913 649.848 75.6896 648.612 80.8462 646.14C86.0028 643.667 90.347 640.029 93.8789 635.226C97.4814 630.352 100.201 624.383 102.038 617.319C103.874 610.185 104.792 601.991 104.792 592.737ZM274.324 510.727V665H253.768L176.102 546.01V665H155.652V510.727H176.102L254.086 630.034V510.727H274.324Z"/>
</mask>
<path d="M106.17 107.942V106.942H105.315L105.182 107.787L106.17 107.942ZM126.514 107.942L127.508 108.05L127.628 106.942H126.514V107.942ZM98.9648 152.444L99.439 153.324L99.4447 153.321L98.9648 152.444ZM43.3374 154.033L42.9183 154.941L42.9216 154.943L43.3374 154.033ZM24.3711 139.623L23.6064 140.267L23.61 140.272L24.3711 139.623ZM12.0801 117.054L11.1276 117.359L11.1306 117.368L12.0801 117.054ZM12.0801 42.8843L11.1299 42.5726L11.1284 42.5773L12.0801 42.8843ZM24.4771 20.2095L23.7208 19.5552L23.7166 19.5601L24.4771 20.2095ZM118.143 25.4014L117.275 25.8984L117.281 25.9077L118.143 25.4014ZM126.514 52.2085V53.2085H127.623L127.508 52.1049L126.514 52.2085ZM106.17 52.2085L105.179 52.3445L105.298 53.2085H106.17V52.2085ZM100.66 33.666L99.7706 34.1228L99.7731 34.1278L100.66 33.666ZM51.708 21.269L51.2608 20.3746L51.2559 20.3771L51.708 21.269ZM38.6753 32.3945L37.8696 31.8021L37.864 31.8099L38.6753 32.3945ZM30.8345 49.6655L29.8674 49.411L30.8345 49.6655ZM30.5166 108.896L29.5429 109.123L29.5453 109.133L30.5166 108.896ZM50.2246 138.246L49.7245 139.112L49.7338 139.117L50.2246 138.246ZM100.448 126.484L99.5612 126.023L99.5563 126.032L100.448 126.484ZM106.17 108.942H126.514V106.942H106.17V108.942ZM125.52 107.834C124.474 117.455 121.723 126.041 117.281 133.607L119.005 134.62C123.605 126.787 126.434 117.925 127.508 108.05L125.52 107.834ZM117.281 133.607C112.857 141.142 106.6 147.128 98.4849 151.567L99.4447 153.321C107.859 148.719 114.388 142.484 119.005 134.62L117.281 133.607ZM98.4907 151.563C90.4107 155.914 80.2722 158.119 68.0254 158.119V160.119C80.5019 160.119 90.9897 157.874 99.4389 153.324L98.4907 151.563ZM68.0254 158.119C59.1115 158.119 51.0261 156.449 43.7532 153.124L42.9216 154.943C50.4827 158.399 58.856 160.119 68.0254 160.119V158.119ZM43.7565 153.125C36.5428 149.796 30.3371 145.081 25.1322 138.974L23.61 140.272C29.0008 146.597 35.4393 151.489 42.9183 154.941L43.7565 153.125ZM25.1358 138.979C19.9294 132.8 15.8906 125.393 13.0295 116.74L11.1306 117.368C14.0619 126.233 18.2171 133.872 23.6064 140.267L25.1358 138.979ZM13.0325 116.749C10.2432 108.033 8.8418 98.3191 8.8418 87.5981H6.8418C6.8418 98.4925 8.26588 108.416 11.1277 117.359L13.0325 116.749ZM8.8418 87.5981V72.2344H6.8418V87.5981H8.8418ZM8.8418 72.2344C8.8418 61.5133 10.2433 51.8357 13.0318 43.1913L11.1284 42.5773C8.26584 51.4511 6.8418 61.3402 6.8418 72.2344H8.8418ZM13.0303 43.1959C15.8908 34.4747 19.9636 27.0349 25.2375 20.8589L23.7166 19.5601C18.2536 25.9576 14.0616 33.6343 11.1299 42.5726L13.0303 43.1959ZM25.2333 20.8638C30.5758 14.6887 36.9901 9.93834 44.4852 6.60717L43.673 4.77955C35.9103 8.22963 29.2566 13.1567 23.7208 19.5552L25.2333 20.8638ZM44.4852 6.60717C51.9693 3.28091 60.4106 1.60742 69.8267 1.60742V-0.392578C60.1705 -0.392578 51.4467 1.32455 43.673 4.77955L44.4852 6.60717ZM69.8267 1.60742C81.3593 1.60742 91.0393 3.7742 98.9109 8.05524L99.8664 6.29827C91.6326 1.8202 81.6045 -0.392578 69.8267 -0.392578V1.60742ZM98.9109 8.05524C106.805 12.3484 112.92 18.293 117.275 25.8984L119.011 24.9044C114.466 16.9694 108.078 10.7642 99.8664 6.29827L98.9109 8.05524ZM117.281 25.9077C121.719 33.4673 124.472 42.2618 125.519 52.3121L127.508 52.1049C126.436 41.8115 123.608 32.7345 119.005 24.895L117.281 25.9077ZM126.514 51.2085H106.17V53.2085H126.514V51.2085ZM107.161 52.0725C106.16 44.7811 104.296 38.4846 101.547 33.2043L99.7731 34.1278C102.393 39.1606 104.202 45.2258 105.179 52.3445L107.161 52.0725ZM101.55 33.2092C98.7799 27.8154 94.8314 23.6435 89.7129 20.7187L88.7207 22.4552C93.4915 25.1814 97.1719 29.0622 99.7706 34.1228L101.55 33.2092ZM89.7129 20.7187C84.5685 17.779 77.9165 16.3486 69.8267 16.3486V18.3486C77.701 18.3486 83.9758 19.7438 88.7207 22.4552L89.7129 20.7187ZM69.8267 16.3486C62.8462 16.3486 56.6489 17.6806 51.2608 20.3746L52.1552 22.1635C57.2215 19.6303 63.1033 18.3486 69.8267 18.3486V16.3486ZM51.2559 20.3771C45.9552 23.0637 41.4913 26.8767 37.8696 31.8021L39.4809 32.9869C42.9231 28.3056 47.1477 24.7016 52.1601 22.161L51.2559 20.3771ZM37.864 31.8099C34.3198 36.7284 31.6593 42.6018 29.8674 49.411L31.8015 49.92C33.5415 43.308 36.1083 37.6674 39.4866 32.9792L37.864 31.8099ZM29.8674 49.411C28.0761 56.2181 27.1855 63.7576 27.1855 72.0225H29.1855C29.1855 63.8993 30.061 56.5342 31.8015 49.92L29.8674 49.411ZM27.1855 72.0225V87.5981H29.1855V72.0225H27.1855ZM27.1855 87.5981C27.1855 95.225 27.9696 102.401 29.5429 109.123L31.4903 108.668C29.9555 102.11 29.1855 95.0879 29.1855 87.5981H27.1855ZM29.5453 109.133C31.1928 115.866 33.6701 121.8 36.9884 126.922L38.6669 125.835C35.4865 120.926 33.0898 115.205 31.4879 108.658L29.5453 109.133ZM36.9884 126.922C40.3209 132.066 44.5678 136.134 49.7245 139.112L50.7247 137.38C45.8508 134.565 41.8331 130.722 38.6669 125.835L36.9884 126.922ZM49.7338 139.117C54.9251 142.042 61.0343 143.484 68.0254 143.484V141.484C61.3127 141.484 55.5548 140.101 50.7155 137.374L49.7338 139.117ZM68.0254 143.484C76.8045 143.484 83.9091 142.094 89.2642 139.234L88.3218 137.47C83.3637 140.118 76.6233 141.484 68.0254 141.484V143.484ZM89.2642 139.234C94.5996 136.383 98.6327 132.278 101.34 126.936L99.5563 126.032C97.0366 131.004 93.2995 134.81 88.3218 137.47L89.2642 139.234ZM101.335 126.946C104.08 121.673 106.015 115.383 107.158 108.097L105.182 107.787C104.064 114.911 102.185 120.983 99.5612 126.023L101.335 126.946ZM236.709 154.033L236.303 153.119L236.3 153.121L236.709 154.033ZM186.167 154.033L185.758 154.946L185.761 154.947L186.167 154.033ZM166.459 139.305L165.7 139.956L165.704 139.961L166.459 139.305ZM153.533 43.9438L152.583 43.6298L152.582 43.6343L153.533 43.9438ZM166.354 20.5273L167.113 21.1781L167.116 21.174L166.354 20.5273ZM185.956 5.69336L185.549 4.77954L185.546 4.78096L185.956 5.69336ZM236.497 5.69336L236.088 6.60576L236.091 6.60717L236.497 5.69336ZM256.099 20.5273L255.332 21.1692L255.34 21.1781L256.099 20.5273ZM268.708 43.9438L267.754 44.2446L267.757 44.2534L268.708 43.9438ZM250.06 50.4072L249.092 50.6589L249.094 50.6679L250.06 50.4072ZM228.656 21.6929L228.224 22.5946L228.229 22.5969L228.656 21.6929ZM193.796 21.6929L193.364 20.7911L193.359 20.7935L193.796 21.6929ZM180.658 32.6064L179.863 31.999L179.858 32.0064L180.658 32.6064ZM172.287 109.319L171.323 109.586L171.324 109.589L172.287 109.319ZM180.764 127.226L179.965 127.828L179.97 127.834L179.975 127.841L180.764 127.226ZM194.008 138.14L193.571 139.039L193.576 139.041L194.008 138.14ZM242.007 127.226L241.203 126.632L241.201 126.634L242.007 127.226ZM250.166 109.319L251.133 109.571L251.134 109.569L250.166 109.319ZM272.158 74.9893V84.7373H274.158V74.9893H272.158ZM272.158 84.7373C272.158 96.2399 270.72 106.52 267.86 115.588L269.768 116.189C272.7 106.892 274.158 96.4039 274.158 84.7373H272.158ZM267.86 115.588C264.998 124.662 260.89 132.346 255.548 138.659L257.074 139.951C262.611 133.408 266.837 125.481 269.768 116.189L267.86 115.588ZM255.548 138.659C250.205 144.973 243.793 149.791 236.303 153.119L237.115 154.947C244.883 151.495 251.539 146.493 257.074 139.951L255.548 138.659ZM236.3 153.121C228.886 156.446 220.552 158.119 211.279 158.119V160.119C220.796 160.119 229.415 158.401 237.118 154.946L236.3 153.121ZM211.279 158.119C202.294 158.119 194.063 156.448 186.574 153.119L185.761 154.947C193.529 158.399 202.04 160.119 211.279 160.119V158.119ZM186.577 153.121C179.155 149.791 172.702 144.971 167.215 138.65L165.704 139.961C171.377 146.495 178.064 151.494 185.758 154.946L186.577 153.121ZM167.219 138.654C161.805 132.338 157.59 124.651 154.588 115.575L152.689 116.203C155.762 125.492 160.095 133.416 165.7 139.956L167.219 138.654ZM154.588 115.575C151.59 106.511 150.083 96.2357 150.083 84.7373H148.083C148.083 96.4082 149.612 106.901 152.689 116.203L154.588 115.575ZM150.083 84.7373V74.9893H148.083V84.7373H150.083ZM150.083 74.9893C150.083 63.4885 151.555 53.2474 154.484 44.2534L152.582 43.6343C149.577 52.8649 148.083 63.3207 148.083 74.9893H150.083ZM154.482 44.2579C157.484 35.181 161.699 27.4943 167.113 21.1781L165.594 19.8766C159.989 26.4165 155.656 34.3408 152.583 43.6298L154.482 44.2579ZM167.116 21.174C172.532 14.7858 178.947 9.93353 186.365 6.60576L185.546 4.78096C177.848 8.23444 171.194 13.2715 165.591 19.8807L167.116 21.174ZM186.362 6.60717C193.851 3.2784 202.082 1.60742 211.067 1.60742V-0.392578C201.828 -0.392578 193.318 1.32707 185.549 4.77955L186.362 6.60717ZM211.067 1.60742C220.34 1.60742 228.674 3.28015 236.088 6.60576L236.906 4.78096C229.203 1.32532 220.584 -0.392578 211.067 -0.392578V1.60742ZM236.091 6.60717C243.578 9.93487 249.99 14.7856 255.332 21.1692L256.866 19.8855C251.33 13.2717 244.674 8.2331 236.903 4.77955L236.091 6.60717ZM255.34 21.1781C260.751 27.4907 264.893 35.1727 267.754 44.2446L269.662 43.6431C266.731 34.3491 262.467 26.4201 256.858 19.8766L255.34 21.1781ZM267.757 44.2534C270.685 53.2474 272.158 63.4885 272.158 74.9893H274.158C274.158 63.3207 272.664 52.8649 269.659 43.6343L267.757 44.2534ZM253.92 84.7373V74.7773H251.92V84.7373H253.92ZM253.92 74.7773C253.92 65.5277 252.96 57.3137 251.025 50.1466L249.094 50.6679C250.973 57.6283 251.92 65.6611 251.92 74.7773H253.92ZM251.027 50.1556C249.165 42.9923 246.396 36.9338 242.701 32.0064L241.101 33.2064C244.61 37.8859 247.281 43.6946 249.092 50.6589L251.027 50.1556ZM242.701 32.0064C239.005 27.0781 234.464 23.3335 229.084 20.7889L228.229 22.5969C233.303 24.9969 237.592 28.528 241.101 33.2064L242.701 32.0064ZM229.089 20.7912C223.778 18.2451 217.764 16.9844 211.067 16.9844V18.9844C217.509 18.9844 223.221 20.1959 228.224 22.5946L229.089 20.7912ZM211.067 16.9844C204.577 16.9844 198.67 18.2472 193.364 20.7912L194.229 22.5946C199.236 20.1939 204.843 18.9844 211.067 18.9844V16.9844ZM193.359 20.7935C188.123 23.3387 183.624 27.0806 179.863 31.999L181.452 33.2139C185.037 28.5255 189.297 24.9918 194.234 22.5922L193.359 20.7935ZM179.858 32.0064C176.166 36.9282 173.328 42.9802 171.324 50.1376L173.25 50.6769C175.202 43.7067 177.944 37.8915 181.458 33.2064L179.858 32.0064ZM171.324 50.1376C169.316 57.308 168.32 65.5251 168.32 74.7773H170.32C170.32 65.6637 171.302 57.6341 173.25 50.6769L171.324 50.1376ZM168.32 74.7773V84.7373H170.32V74.7773H168.32ZM168.32 84.7373C168.32 94.0597 169.316 102.347 171.323 109.586L173.251 109.052C171.302 102.023 170.32 93.9221 170.32 84.7373H168.32ZM171.324 109.589C173.329 116.749 176.203 122.836 179.965 127.828L181.562 126.624C177.978 121.868 175.201 116.017 173.25 109.05L171.324 109.589ZM179.975 127.841C183.805 132.755 188.337 136.495 193.571 139.039L194.445 137.24C189.507 134.84 185.21 131.304 181.552 126.611L179.975 127.841ZM193.576 139.041C198.882 141.585 204.789 142.848 211.279 142.848V140.848C205.055 140.848 199.448 139.639 194.441 137.238L193.576 139.041ZM211.279 142.848C218.045 142.848 224.095 141.588 229.406 139.041L228.542 137.238C223.54 139.636 217.794 140.848 211.279 140.848V142.848ZM229.406 139.041C234.717 136.495 239.188 132.748 242.812 127.818L241.201 126.634C237.762 131.311 233.544 134.84 228.542 137.238L229.406 139.041ZM242.811 127.82C246.503 122.825 249.271 116.734 251.133 109.571L249.198 109.068C247.387 116.032 244.715 121.879 241.203 126.632L242.811 127.82ZM251.134 109.569C252.996 102.335 253.92 94.0546 253.92 84.7373H251.92C251.92 93.9272 251.008 102.035 249.197 109.07L251.134 109.569ZM85.0845 256.727H86.0845V255.727H85.0845V256.727ZM85.0845 411V412H86.0845V411H85.0845ZM64.9526 411H63.9526V412H64.9526V411ZM64.9526 256.727V255.727H63.9526V256.727H64.9526ZM134.672 256.727H135.672V255.727H134.672V256.727ZM134.672 273.468V274.468H135.672V273.468H134.672ZM15.4707 273.468H14.4707V274.468H15.4707V273.468ZM15.4707 256.727V255.727H14.4707V256.727H15.4707ZM84.0845 256.727V411H86.0845V256.727H84.0845ZM85.0845 410H64.9526V412H85.0845V410ZM65.9526 411V256.727H63.9526V411H65.9526ZM64.9526 257.727H85.0845V255.727H64.9526V257.727ZM133.672 256.727V273.468H135.672V256.727H133.672ZM134.672 272.468H15.4707V274.468H134.672V272.468ZM16.4707 273.468V256.727H14.4707V273.468H16.4707ZM15.4707 257.727H134.672V255.727H15.4707V257.727ZM216.259 256.727H217.259V255.727H216.259V256.727ZM216.259 411V412H217.259V411H216.259ZM196.127 411H195.127V412H196.127V411ZM196.127 256.727V255.727H195.127V256.727H196.127ZM265.847 256.727H266.847V255.727H265.847V256.727ZM265.847 273.468V274.468H266.847V273.468H265.847ZM146.646 273.468H145.646V274.468H146.646V273.468ZM146.646 256.727V255.727H145.646V256.727H146.646ZM215.259 256.727V411H217.259V256.727H215.259ZM216.259 410H196.127V412H216.259V410ZM197.127 411V256.727H195.127V411H197.127ZM196.127 257.727H216.259V255.727H196.127V257.727ZM264.847 256.727V273.468H266.847V256.727H264.847ZM265.847 272.468H146.646V274.468H265.847V272.468ZM147.646 273.468V256.727H145.646V273.468H147.646ZM146.646 257.727H265.847V255.727H146.646V257.727ZM88.5811 662.033L88.1749 661.119L88.1718 661.121L88.5811 662.033ZM38.0396 662.033L37.6302 662.946L37.6334 662.947L38.0396 662.033ZM18.3315 647.305L17.5723 647.956L17.5764 647.961L18.3315 647.305ZM5.40479 551.944L4.45536 551.63L4.45391 551.634L5.40479 551.944ZM18.2256 528.527L18.9849 529.178L18.9883 529.174L18.2256 528.527ZM37.8276 513.693L37.4215 512.78L37.4183 512.781L37.8276 513.693ZM88.3691 513.693L87.9598 514.606L87.963 514.607L88.3691 513.693ZM107.971 528.527L107.204 529.169L107.212 529.178L107.971 528.527ZM120.58 551.944L119.626 552.245L119.629 552.253L120.58 551.944ZM101.932 558.407L100.964 558.659L100.966 558.668L101.932 558.407ZM80.5283 529.693L80.096 530.595L80.1008 530.597L80.5283 529.693ZM45.6685 529.693L45.2361 528.791L45.2313 528.794L45.6685 529.693ZM32.5298 540.606L31.7354 539.999L31.7298 540.006L32.5298 540.606ZM24.1592 617.319L23.1955 617.586L23.1962 617.589L24.1592 617.319ZM32.6357 635.226L31.8371 635.828L31.842 635.834L31.847 635.841L32.6357 635.226ZM45.8804 646.14L45.4432 647.039L45.448 647.041L45.8804 646.14ZM93.8789 635.226L93.0747 634.632L93.0733 634.634L93.8789 635.226ZM102.038 617.319L103.005 617.571L103.006 617.569L102.038 617.319ZM124.03 582.989V592.737H126.03V582.989H124.03ZM124.03 592.737C124.03 604.24 122.592 614.52 119.732 623.588L121.64 624.189C124.572 614.892 126.03 604.404 126.03 592.737H124.03ZM119.732 623.588C116.87 632.662 112.762 640.346 107.42 646.659L108.946 647.951C114.483 641.408 118.709 633.481 121.64 624.189L119.732 623.588ZM107.42 646.659C102.077 652.973 95.6648 657.791 88.1749 661.119L88.9872 662.947C96.7551 659.495 103.411 654.493 108.946 647.951L107.42 646.659ZM88.1718 661.121C80.7584 664.446 72.424 666.119 63.1514 666.119V668.119C72.6684 668.119 81.2872 666.401 88.9904 662.946L88.1718 661.121ZM63.1514 666.119C54.1661 666.119 45.9354 664.448 38.4457 661.119L37.6334 662.947C45.4015 666.399 53.9121 668.119 63.1514 668.119V666.119ZM38.4489 661.121C31.0269 657.791 24.5745 652.971 19.0867 646.65L17.5764 647.961C23.2494 654.495 29.9357 659.494 37.6302 662.946L38.4489 661.121ZM19.0908 646.654C13.6769 640.338 9.4625 632.651 6.46015 623.575L4.56133 624.203C7.63386 633.492 11.9666 641.416 17.5723 647.956L19.0908 646.654ZM6.46015 623.575C3.4621 614.511 1.95459 604.236 1.95459 592.737H-0.0454102C-0.0454102 604.408 1.48452 614.901 4.56133 624.203L6.46015 623.575ZM1.95459 592.737V582.989H-0.0454102V592.737H1.95459ZM1.95459 582.989C1.95459 571.489 3.42738 561.247 6.35566 552.253L4.45391 551.634C1.44859 560.865 -0.0454102 571.321 -0.0454102 582.989H1.95459ZM6.3542 552.258C9.35654 543.181 13.571 535.494 18.9848 529.178L17.4663 527.877C11.8607 534.417 7.5279 542.341 4.45537 551.63L6.3542 552.258ZM18.9883 529.174C24.4044 522.786 30.8188 517.934 38.2369 514.606L37.4183 512.781C29.72 516.234 23.0663 521.271 17.4628 527.881L18.9883 529.174ZM38.2338 514.607C45.7235 511.278 53.9541 509.607 62.9395 509.607V507.607C53.7002 507.607 45.1896 509.327 37.4215 512.78L38.2338 514.607ZM62.9395 509.607C72.2121 509.607 80.5465 511.28 87.9598 514.606L88.7784 512.781C81.0752 509.325 72.4565 507.607 62.9395 507.607V509.607ZM87.963 514.607C95.4503 517.935 101.862 522.786 107.204 529.169L108.738 527.885C103.203 521.272 96.5458 516.233 88.7753 512.78L87.963 514.607ZM107.212 529.178C112.623 535.491 116.765 543.173 119.626 552.245L121.534 551.643C118.603 542.349 114.339 534.42 108.73 527.877L107.212 529.178ZM119.629 552.253C122.557 561.247 124.03 571.489 124.03 582.989H126.03C126.03 571.321 124.536 560.865 121.531 551.634L119.629 552.253ZM105.792 592.737V582.777H103.792V592.737H105.792ZM105.792 582.777C105.792 573.528 104.832 565.314 102.897 558.147L100.966 558.668C102.846 565.628 103.792 573.661 103.792 582.777H105.792ZM102.899 558.156C101.037 550.992 98.2684 544.934 94.573 540.006L92.9729 541.206C96.4825 545.886 99.1531 551.695 100.964 558.659L102.899 558.156ZM94.573 540.006C90.8767 535.078 86.3358 531.333 80.9559 528.789L80.1008 530.597C85.1752 532.997 89.4641 536.528 92.9729 541.206L94.573 540.006ZM80.9606 528.791C75.6504 526.245 69.6362 524.984 62.9395 524.984V526.984C69.3814 526.984 75.0931 528.196 80.096 530.595L80.9606 528.791ZM62.9395 524.984C56.4493 524.984 50.5421 526.247 45.2361 528.791L46.1008 530.595C51.108 528.194 56.7148 526.984 62.9395 526.984V524.984ZM45.2313 528.794C39.9955 531.339 35.4966 535.081 31.7354 539.999L33.3241 541.214C36.9094 536.526 41.1695 532.992 46.1056 530.592L45.2313 528.794ZM31.7298 540.006C28.0385 544.928 25.2003 550.98 23.1962 558.138L25.1221 558.677C27.0738 551.707 29.816 545.891 33.3298 541.206L31.7298 540.006ZM23.1962 558.138C21.1885 565.308 20.1924 573.525 20.1924 582.777H22.1924C22.1924 573.664 23.1741 565.634 25.1221 558.677L23.1962 558.138ZM20.1924 582.777V592.737H22.1924V582.777H20.1924ZM20.1924 592.737C20.1924 602.06 21.1884 610.347 23.1955 617.586L25.1228 617.052C23.1742 610.023 22.1924 601.922 22.1924 592.737H20.1924ZM23.1962 617.589C25.2011 624.749 28.0755 630.836 31.8371 635.828L33.4344 634.624C29.8497 629.868 27.073 624.017 25.1221 617.05L23.1962 617.589ZM31.847 635.841C35.6774 640.755 40.2095 644.495 45.4432 647.039L46.3176 645.24C41.3794 642.84 37.0818 639.304 33.4245 634.611L31.847 635.841ZM45.448 647.041C50.754 649.585 56.6612 650.848 63.1514 650.848V648.848C56.9267 648.848 51.3199 647.639 46.3127 645.238L45.448 647.041ZM63.1514 650.848C69.917 650.848 75.9669 649.588 81.2785 647.041L80.4139 645.238C75.4123 647.636 69.6657 648.848 63.1514 648.848V650.848ZM81.2785 647.041C86.5894 644.495 91.0598 640.748 94.6846 635.818L93.0733 634.634C89.6343 639.311 85.4161 642.84 80.4139 645.238L81.2785 647.041ZM94.6831 635.82C98.3754 630.825 101.143 624.734 103.005 617.571L101.07 617.068C99.2589 624.032 96.5875 629.879 93.0747 634.632L94.6831 635.82ZM103.006 617.569C104.868 610.335 105.792 602.055 105.792 592.737H103.792C103.792 601.927 102.88 610.035 101.069 617.07L103.006 617.569ZM274.324 510.727H275.324V509.727H274.324V510.727ZM274.324 665V666H275.324V665H274.324ZM253.768 665L252.931 665.547L253.227 666H253.768V665ZM176.102 546.01L176.939 545.464L175.102 542.649V546.01H176.102ZM176.102 665V666H177.102V665H176.102ZM155.652 665H154.652V666H155.652V665ZM155.652 510.727V509.727H154.652V510.727H155.652ZM176.102 510.727L176.939 510.179L176.643 509.727H176.102V510.727ZM254.086 630.034L253.249 630.581L255.086 633.392V630.034H254.086ZM254.086 510.727V509.727H253.086V510.727H254.086ZM273.324 510.727V665H275.324V510.727H273.324ZM274.324 664H253.768V666H274.324V664ZM254.605 664.453L176.939 545.464L175.264 546.557L252.931 665.547L254.605 664.453ZM175.102 546.01V665H177.102V546.01H175.102ZM176.102 664H155.652V666H176.102V664ZM156.652 665V510.727H154.652V665H156.652ZM155.652 511.727H176.102V509.727H155.652V511.727ZM175.265 511.274L253.249 630.581L254.923 629.487L176.939 510.179L175.265 511.274ZM255.086 630.034V510.727H253.086V630.034H255.086ZM254.086 511.727H274.324V509.727H254.086V511.727Z" fill="#585858" mask="url(#path-1-outside-1_54_23)"/>
</svg>
