<svg width="1038" height="202" viewBox="0 0 1038 202" fill="none" xmlns="http://www.w3.org/2000/svg">
<mask id="path-1-outside-1_3_3" maskUnits="userSpaceOnUse" x="-1" y="-1" width="1040" height="204" fill="black">
<rect fill="white" x="-1" y="-1" width="1040" height="204"/>
<path d="M124.771 136.83H150.552C149.209 149.183 145.673 160.239 139.944 169.996C134.215 179.754 126.113 187.497 115.64 193.226C105.166 198.866 92.0964 201.686 76.4307 201.686C64.9723 201.686 54.5435 199.537 45.144 195.24C35.8341 190.943 27.8223 184.856 21.1084 176.979C14.3945 169.011 9.20247 159.478 5.53223 148.377C1.9515 137.188 0.161133 124.745 0.161133 111.048V91.5781C0.161133 77.8818 1.9515 65.4836 5.53223 54.3833C9.20247 43.1935 14.4393 33.6151 21.2427 25.6479C28.1356 17.6808 36.416 11.5488 46.084 7.25195C55.752 2.95508 66.6284 0.806641 78.7134 0.806641C93.4839 0.806641 105.972 3.58171 116.177 9.13184C126.382 14.682 134.304 22.3805 139.944 32.2275C145.673 41.985 149.209 53.3091 150.552 66.1997H124.771C123.517 57.0688 121.19 49.236 117.788 42.7012C114.386 36.0768 109.552 30.9743 103.286 27.3936C97.0199 23.8128 88.8289 22.0225 78.7134 22.0225C70.0301 22.0225 62.3763 23.6785 55.752 26.9907C49.2171 30.3029 43.7118 35.0026 39.2358 41.0898C34.8494 47.1771 31.5373 54.4728 29.2993 62.9771C27.0614 71.4813 25.9424 80.9255 25.9424 91.3096V111.048C25.9424 120.627 26.9271 129.623 28.8965 138.038C30.9554 146.453 34.0438 153.838 38.1616 160.194C42.2795 166.55 47.5163 171.563 53.8721 175.233C60.2279 178.814 67.7474 180.604 76.4307 180.604C87.4414 180.604 96.2142 178.858 102.749 175.367C109.284 171.876 114.207 166.863 117.52 160.328C120.921 153.793 123.338 145.96 124.771 136.83ZM336.392 95.0693V107.423C336.392 122.104 334.556 135.263 330.886 146.9C327.216 158.538 321.934 168.43 315.042 176.576C308.149 184.722 299.868 190.943 290.2 195.24C280.622 199.537 269.88 201.686 257.974 201.686C246.426 201.686 235.818 199.537 226.15 195.24C216.571 190.943 208.246 184.722 201.174 176.576C194.192 168.43 188.776 158.538 184.927 146.9C181.077 135.263 179.153 122.104 179.153 107.423V95.0693C179.153 80.3883 181.033 67.2739 184.792 55.7261C188.642 44.0887 194.058 34.1969 201.04 26.0508C208.022 17.8151 216.303 11.5488 225.881 7.25195C235.549 2.95508 246.157 0.806641 257.705 0.806641C269.611 0.806641 280.353 2.95508 289.932 7.25195C299.6 11.5488 307.88 17.8151 314.773 26.0508C321.755 34.1969 327.082 44.0887 330.752 55.7261C334.512 67.2739 336.392 80.3883 336.392 95.0693ZM310.745 107.423V94.8008C310.745 83.1634 309.536 72.8688 307.119 63.917C304.792 54.9652 301.345 47.4456 296.78 41.3584C292.214 35.2712 286.619 30.661 279.995 27.5278C273.46 24.3947 266.03 22.8281 257.705 22.8281C249.648 22.8281 242.353 24.3947 235.818 27.5278C229.373 30.661 223.822 35.2712 219.167 41.3584C214.602 47.4456 211.066 54.9652 208.56 63.917C206.053 72.8688 204.8 83.1634 204.8 94.8008V107.423C204.8 119.15 206.053 129.534 208.56 138.575C211.066 147.527 214.647 155.091 219.302 161.268C224.046 167.355 229.641 171.965 236.086 175.099C242.621 178.232 249.917 179.798 257.974 179.798C266.388 179.798 273.863 178.232 280.398 175.099C286.933 171.965 292.438 167.355 296.914 161.268C301.479 155.091 304.926 147.527 307.253 138.575C309.581 129.534 310.745 119.15 310.745 107.423ZM443.679 3.49219V199H418.167V3.49219H443.679ZM506.521 3.49219V24.708H355.459V3.49219H506.521ZM609.915 3.49219V199H584.402V3.49219H609.915ZM672.756 3.49219V24.708H521.694V3.49219H672.756ZM848.525 95.0693V107.423C848.525 122.104 846.69 135.263 843.02 146.9C839.35 158.538 834.068 168.43 827.175 176.576C820.282 184.722 812.002 190.943 802.334 195.24C792.756 199.537 782.013 201.686 770.107 201.686C758.56 201.686 747.952 199.537 738.284 195.24C728.705 190.943 720.38 184.722 713.308 176.576C706.326 168.43 700.91 158.538 697.061 146.9C693.211 135.263 691.287 122.104 691.287 107.423V95.0693C691.287 80.3883 693.167 67.2739 696.926 55.7261C700.776 44.0887 706.191 34.1969 713.174 26.0508C720.156 17.8151 728.437 11.5488 738.015 7.25195C747.683 2.95508 758.291 0.806641 769.839 0.806641C781.745 0.806641 792.487 2.95508 802.065 7.25195C811.733 11.5488 820.014 17.8151 826.907 26.0508C833.889 34.1969 839.215 44.0887 842.886 55.7261C846.646 67.2739 848.525 80.3883 848.525 95.0693ZM822.878 107.423V94.8008C822.878 83.1634 821.67 72.8688 819.253 63.917C816.925 54.9652 813.479 47.4456 808.914 41.3584C804.348 35.2712 798.753 30.661 792.129 27.5278C785.594 24.3947 778.164 22.8281 769.839 22.8281C761.782 22.8281 754.486 24.3947 747.952 27.5278C741.506 30.661 735.956 35.2712 731.301 41.3584C726.736 47.4456 723.2 54.9652 720.693 63.917C718.187 72.8688 716.934 83.1634 716.934 94.8008V107.423C716.934 119.15 718.187 129.534 720.693 138.575C723.2 147.527 726.781 155.091 731.436 161.268C736.18 167.355 741.775 171.965 748.22 175.099C754.755 178.232 762.051 179.798 770.107 179.798C778.522 179.798 785.997 178.232 792.532 175.099C799.067 171.965 804.572 167.355 809.048 161.268C813.613 155.091 817.06 147.527 819.387 138.575C821.715 129.534 822.878 119.15 822.878 107.423ZM1037.72 3.49219V199H1011.67L913.247 48.2065V199H887.332V3.49219H913.247L1012.08 154.688V3.49219H1037.72Z"/>
</mask>
<path d="M124.771 136.83V135.83H123.915L123.783 136.675L124.771 136.83ZM150.552 136.83L151.546 136.938L151.666 135.83H150.552V136.83ZM115.64 193.226L116.114 194.107L116.12 194.103L115.64 193.226ZM45.144 195.24L44.725 196.148L44.7283 196.15L45.144 195.24ZM21.1084 176.979L20.3437 177.623L20.3473 177.627L21.1084 176.979ZM5.53223 148.377L4.57976 148.682L4.58278 148.691L5.53223 148.377ZM5.53223 54.3833L4.58202 54.0716L4.58052 54.0763L5.53223 54.3833ZM21.2427 25.6479L20.4864 24.9937L20.4822 24.9986L21.2427 25.6479ZM139.944 32.2275L139.076 32.7246L139.082 32.7339L139.944 32.2275ZM150.552 66.1997V67.1997H151.661L151.546 66.0961L150.552 66.1997ZM124.771 66.1997L123.78 66.3357L123.898 67.1997H124.771V66.1997ZM117.788 42.7012L116.898 43.158L116.901 43.1629L117.788 42.7012ZM55.752 26.9907L55.3047 26.0963L55.2999 26.0988L55.752 26.9907ZM39.2358 41.0898L38.4302 40.4974L38.4245 40.5052L39.2358 41.0898ZM29.2993 62.9771L28.3322 62.7226L29.2993 62.9771ZM28.8965 138.038L27.9227 138.266L27.9251 138.276L28.8965 138.038ZM53.8721 175.233L53.372 176.099L53.3812 176.104L53.8721 175.233ZM117.52 160.328L116.632 159.866L116.628 159.876L117.52 160.328ZM124.771 137.83H150.552V135.83H124.771V137.83ZM149.558 136.722C148.229 148.948 144.732 159.866 139.082 169.49L140.806 170.502C146.614 160.611 150.189 149.418 151.546 136.938L149.558 136.722ZM139.082 169.49C133.449 179.083 125.484 186.701 115.16 192.349L116.12 194.103C126.743 188.292 134.98 180.425 140.806 170.502L139.082 169.49ZM115.166 192.346C104.877 197.886 91.9815 200.686 76.4307 200.686V202.686C92.2112 202.686 105.456 199.846 116.114 194.107L115.166 192.346ZM76.4307 200.686C65.1001 200.686 54.8152 198.562 45.5598 194.331L44.7283 196.15C54.2718 200.512 64.8446 202.686 76.4307 202.686V200.686ZM45.5631 194.332C36.3859 190.097 28.4904 184.098 21.8695 176.33L20.3473 177.627C27.1542 185.614 35.2824 191.79 44.725 196.148L45.5631 194.332ZM21.8731 176.334C15.2507 168.476 10.1168 159.058 6.48167 148.064L4.58278 148.691C8.28814 159.898 13.5383 169.547 20.3437 177.623L21.8731 176.334ZM6.48465 148.073C2.94017 136.996 1.16113 124.658 1.16113 111.048H-0.838867C-0.838867 124.831 0.962822 137.379 4.5798 148.682L6.48465 148.073ZM1.16113 111.048V91.5781H-0.838867V111.048H1.16113ZM1.16113 91.5781C1.16113 77.9684 2.94022 65.6758 6.48393 54.6903L4.58052 54.0763C0.962776 65.2913 -0.838867 77.7953 -0.838867 91.5781H1.16113ZM6.48242 54.695C10.1171 43.6137 15.2943 34.1538 22.0031 26.2973L20.4822 24.9986C13.5843 33.0764 8.28788 42.7733 4.58203 54.0716L6.48242 54.695ZM21.9989 26.3022C28.7952 18.4468 36.9559 12.4032 46.4901 8.16576L45.6778 6.33814C35.8761 10.6945 27.476 16.9149 20.4864 24.9937L21.9989 26.3022ZM46.4901 8.16576C56.0133 3.93326 66.7485 1.80664 78.7134 1.80664V-0.193359C66.5083 -0.193359 55.4906 1.9769 45.6778 6.33814L46.4901 8.16576ZM78.7134 1.80664C93.3613 1.80664 105.675 4.55871 115.699 10.0103L116.655 8.25335C106.268 2.6047 93.6065 -0.193359 78.7134 -0.193359V1.80664ZM115.699 10.0103C125.745 15.4741 133.531 23.0423 139.076 32.7245L140.812 31.7306C135.078 21.7187 127.018 13.8898 116.655 8.25335L115.699 10.0103ZM139.082 32.7339C144.729 42.3514 148.227 53.5342 149.557 66.3033L151.546 66.0961C150.191 53.0839 146.618 41.6186 140.806 31.7212L139.082 32.7339ZM150.552 65.1997H124.771V67.1997H150.552V65.1997ZM125.761 66.0637C124.496 56.8465 122.141 48.898 118.675 42.2394L116.901 43.1629C120.238 49.574 122.538 57.2912 123.78 66.3357L125.761 66.0637ZM118.678 42.2444C115.19 35.4534 110.222 30.2054 103.782 26.5253L102.79 28.2618C108.882 31.7432 113.582 36.7002 116.899 43.158L118.678 42.2444ZM103.782 26.5253C97.3162 22.8304 88.9366 21.0225 78.7134 21.0225V23.0225C88.7212 23.0225 96.7235 24.7952 102.79 28.2618L103.782 26.5253ZM78.7134 21.0225C69.9016 21.0225 62.09 22.7037 55.3047 26.0963L56.1992 27.8851C62.6626 24.6534 70.1587 23.0225 78.7134 23.0225V21.0225ZM55.2999 26.0988C48.6209 29.484 42.9959 34.2881 38.4302 40.4975L40.0415 41.6822C44.4276 35.7171 49.8134 31.1218 56.204 27.8827L55.2999 26.0988ZM38.4245 40.5052C33.9552 46.7076 30.5961 54.1197 28.3322 62.7226L30.2664 63.2315C32.4784 54.8259 35.7437 47.6466 40.0471 41.6745L38.4245 40.5052ZM28.3322 62.7226C26.0689 71.3232 24.9424 80.8546 24.9424 91.3096H26.9424C26.9424 80.9963 28.0538 71.6393 30.2664 63.2315L28.3322 62.7226ZM24.9424 91.3096V111.048H26.9424V91.3096H24.9424ZM24.9424 111.048C24.9424 120.695 25.9341 129.769 27.9228 138.266L29.8702 137.81C27.92 129.478 26.9424 120.558 26.9424 111.048H24.9424ZM27.9251 138.276C30.0069 146.784 33.1356 154.275 37.3224 160.738L39.0009 159.65C34.9519 153.401 31.9039 146.122 29.8678 137.8L27.9251 138.276ZM37.3224 160.738C41.5234 167.222 46.8748 172.347 53.372 176.099L54.3721 174.367C48.1577 170.778 43.0356 165.878 39.0009 159.65L37.3224 160.738ZM53.3812 176.104C59.913 179.784 67.6082 181.604 76.4307 181.604V179.604C67.8866 179.604 60.5427 177.843 54.3629 174.362L53.3812 176.104ZM76.4307 181.604C87.532 181.604 96.4869 179.846 103.22 176.249L102.278 174.485C95.9415 177.87 87.3508 179.604 76.4307 179.604V181.604ZM103.22 176.249C109.934 172.662 115.005 167.5 118.411 160.78L116.628 159.876C113.409 166.226 108.634 171.09 102.278 174.485L103.22 176.249ZM118.407 160.79C121.869 154.138 124.313 146.196 125.758 136.985L123.783 136.675C122.363 145.724 119.973 153.449 116.633 159.866L118.407 160.79ZM315.042 176.576L314.278 175.93L315.042 176.576ZM290.2 195.24L289.794 194.326L289.791 194.328L290.2 195.24ZM226.15 195.24L225.741 196.153L225.744 196.154L226.15 195.24ZM201.174 176.576L200.415 177.226L200.419 177.231L201.174 176.576ZM184.792 55.7261L183.843 55.412L183.842 55.4165L184.792 55.7261ZM201.04 26.0508L201.799 26.7016L201.803 26.6975L201.04 26.0508ZM225.881 7.25195L225.475 6.33814L225.472 6.33955L225.881 7.25195ZM289.932 7.25195L289.522 8.16436L289.526 8.16576L289.932 7.25195ZM314.773 26.0508L314.006 26.6926L314.014 26.7016L314.773 26.0508ZM330.752 55.7261L329.798 56.0269L329.801 56.0357L330.752 55.7261ZM307.119 63.917L306.151 64.1686L306.154 64.1777L307.119 63.917ZM279.995 27.5278L279.563 28.4296L279.568 28.4318L279.995 27.5278ZM235.818 27.5278L235.386 26.6261L235.381 26.6285L235.818 27.5278ZM219.167 41.3584L218.373 40.7509L218.367 40.7584L219.167 41.3584ZM208.56 63.917L209.523 64.1866L208.56 63.917ZM208.56 138.575L207.596 138.842L207.597 138.845L208.56 138.575ZM219.302 161.268L218.503 161.87L218.508 161.876L218.513 161.883L219.302 161.268ZM236.086 175.099L235.649 175.998L235.654 176L236.086 175.099ZM296.914 161.268L296.11 160.674L296.108 160.676L296.914 161.268ZM307.253 138.575L308.221 138.827L308.222 138.824L307.253 138.575ZM335.392 95.0693V107.423H337.392V95.0693H335.392ZM335.392 107.423C335.392 122.022 333.567 135.077 329.933 146.6L331.84 147.201C335.546 135.449 337.392 122.186 337.392 107.423H335.392ZM329.933 146.6C326.297 158.128 321.074 167.898 314.278 175.93L315.805 177.222C322.795 168.961 328.135 158.947 331.84 147.201L329.933 146.6ZM314.278 175.93C307.482 183.962 299.323 190.091 289.794 194.326L290.606 196.154C300.413 191.795 308.815 185.482 315.805 177.222L314.278 175.93ZM289.791 194.328C280.357 198.56 269.757 200.686 257.974 200.686V202.686C270.002 202.686 280.886 200.515 290.609 196.153L289.791 194.328ZM257.974 200.686C246.553 200.686 236.085 198.561 226.556 194.326L225.744 196.154C235.551 200.513 246.299 202.686 257.974 202.686V200.686ZM226.559 194.328C217.117 190.092 208.909 183.96 201.929 175.92L200.419 177.231C207.584 185.484 216.026 191.795 225.741 196.153L226.559 194.328ZM201.934 175.925C195.047 167.891 189.69 158.118 185.876 146.586L183.977 147.214C187.862 158.958 193.337 168.968 200.415 177.226L201.934 175.925ZM185.876 146.586C182.066 135.068 180.153 122.018 180.153 107.423H178.153C178.153 122.19 180.089 135.458 183.977 147.214L185.876 146.586ZM180.153 107.423V95.0693H178.153V107.423H180.153ZM180.153 95.0693C180.153 80.4723 182.022 67.4652 185.743 56.0357L183.842 55.4165C180.043 67.0827 178.153 80.3044 178.153 95.0693H180.153ZM185.742 56.0401C189.556 44.5088 194.913 34.7359 201.799 26.7016L200.281 25.4C193.202 33.658 187.727 43.6686 183.843 55.412L185.742 56.0401ZM201.803 26.6975C208.692 18.5723 216.852 12.3984 226.291 8.16435L225.472 6.33955C215.753 10.6993 207.353 17.0579 200.277 25.4041L201.803 26.6975ZM226.287 8.16576C235.816 3.93074 246.284 1.80664 257.705 1.80664V-0.193359C246.03 -0.193359 235.282 1.97941 225.475 6.33814L226.287 8.16576ZM257.705 1.80664C269.489 1.80664 280.089 3.93249 289.522 8.16435L290.341 6.33955C280.618 1.97766 269.733 -0.193359 257.705 -0.193359V1.80664ZM289.526 8.16576C299.052 12.3997 307.21 18.5721 314.006 26.6926L315.54 25.409C308.551 17.0581 300.147 10.6979 290.338 6.33814L289.526 8.16576ZM314.014 26.7016C320.897 34.7322 326.163 44.5005 329.798 56.0269L331.706 55.4253C328 43.6769 322.614 33.6616 315.532 25.4L314.014 26.7016ZM329.801 56.0357C333.522 67.4652 335.392 80.4723 335.392 95.0693H337.392C337.392 80.3044 335.501 67.0827 331.703 55.4165L329.801 56.0357ZM311.745 107.423V94.8008H309.745V107.423H311.745ZM311.745 94.8008C311.745 83.0967 310.529 72.7115 308.085 63.6563L306.154 64.1777C308.543 73.0261 309.745 83.2301 309.745 94.8008H311.745ZM308.087 63.6654C305.734 54.614 302.238 46.9696 297.58 40.7584L295.98 41.9584C300.452 47.9217 303.85 55.3163 306.151 64.1686L308.087 63.6654ZM297.58 40.7584C292.921 34.5462 287.2 29.8292 280.423 26.6238L279.568 28.4318C286.039 31.4927 291.508 35.9961 295.98 41.9584L297.58 40.7584ZM280.427 26.6261C273.739 23.4193 266.158 21.8281 257.705 21.8281V23.8281C265.903 23.8281 273.182 25.3701 279.563 28.4295L280.427 26.6261ZM257.705 21.8281C249.516 21.8281 242.07 23.4214 235.386 26.6261L236.25 28.4295C242.636 25.368 249.781 23.8281 257.705 23.8281V21.8281ZM235.381 26.6285C228.786 29.8344 223.116 34.5487 218.373 40.7509L219.962 41.9658C224.529 35.9936 229.96 31.4875 236.255 28.4272L235.381 26.6285ZM218.367 40.7584C213.713 46.964 210.129 54.6019 207.597 63.6474L209.523 64.1866C212.003 55.3284 215.491 47.9273 219.967 41.9584L218.367 40.7584ZM207.597 63.6474C205.06 72.7057 203.8 83.0941 203.8 94.8008H205.8C205.8 83.2327 207.046 73.0319 209.523 64.1866L207.597 63.6474ZM203.8 94.8008V107.423H205.8V94.8008H203.8ZM203.8 107.423C203.8 119.219 205.06 129.696 207.596 138.842L209.523 138.308C207.046 129.372 205.8 119.081 205.8 107.423H203.8ZM207.597 138.845C210.13 147.893 213.76 155.576 218.503 161.87L220.1 160.666C215.534 154.607 212.002 147.161 209.523 138.306L207.597 138.845ZM218.513 161.883C223.344 168.081 229.056 172.793 235.649 175.998L236.524 174.199C230.226 171.138 224.748 166.63 220.09 160.653L218.513 161.883ZM235.654 176C242.338 179.205 249.784 180.798 257.974 180.798V178.798C250.05 178.798 242.904 177.258 236.519 174.197L235.654 176ZM257.974 180.798C266.514 180.798 274.14 179.208 280.83 176L279.966 174.197C273.586 177.256 266.263 178.798 257.974 178.798V180.798ZM280.83 176C287.519 172.793 293.151 168.074 297.72 161.86L296.108 160.676C291.725 166.637 286.346 171.138 279.966 174.197L280.83 176ZM297.718 161.862C302.373 155.564 305.868 147.878 308.221 138.827L306.286 138.324C303.984 147.176 300.586 154.618 296.11 160.674L297.718 161.862ZM308.222 138.824C310.575 129.684 311.745 119.213 311.745 107.423H309.745C309.745 119.086 308.587 129.384 306.285 138.326L308.222 138.824ZM443.679 3.49219H444.679V2.49219H443.679V3.49219ZM443.679 199V200H444.679V199H443.679ZM418.167 199H417.167V200H418.167V199ZM418.167 3.49219V2.49219H417.167V3.49219H418.167ZM506.521 3.49219H507.521V2.49219H506.521V3.49219ZM506.521 24.708V25.708H507.521V24.708H506.521ZM355.459 24.708H354.459V25.708H355.459V24.708ZM355.459 3.49219V2.49219H354.459V3.49219H355.459ZM442.679 3.49219V199H444.679V3.49219H442.679ZM443.679 198H418.167V200H443.679V198ZM419.167 199V3.49219H417.167V199H419.167ZM418.167 4.49219H443.679V2.49219H418.167V4.49219ZM505.521 3.49219V24.708H507.521V3.49219H505.521ZM506.521 23.708H355.459V25.708H506.521V23.708ZM356.459 24.708V3.49219H354.459V24.708H356.459ZM355.459 4.49219H506.521V2.49219H355.459V4.49219ZM609.915 3.49219H610.915V2.49219H609.915V3.49219ZM609.915 199V200H610.915V199H609.915ZM584.402 199H583.402V200H584.402V199ZM584.402 3.49219V2.49219H583.402V3.49219H584.402ZM672.756 3.49219H673.756V2.49219H672.756V3.49219ZM672.756 24.708V25.708H673.756V24.708H672.756ZM521.694 24.708H520.694V25.708H521.694V24.708ZM521.694 3.49219V2.49219H520.694V3.49219H521.694ZM608.915 3.49219V199H610.915V3.49219H608.915ZM609.915 198H584.402V200H609.915V198ZM585.402 199V3.49219H583.402V199H585.402ZM584.402 4.49219H609.915V2.49219H584.402V4.49219ZM671.756 3.49219V24.708H673.756V3.49219H671.756ZM672.756 23.708H521.694V25.708H672.756V23.708ZM522.694 24.708V3.49219H520.694V24.708H522.694ZM521.694 4.49219H672.756V2.49219H521.694V4.49219ZM827.175 176.576L826.412 175.93L827.175 176.576ZM802.334 195.24L801.928 194.326L801.925 194.328L802.334 195.24ZM738.284 195.24L737.874 196.153L737.878 196.154L738.284 195.24ZM713.308 176.576L712.549 177.226L712.553 177.231L713.308 176.576ZM696.926 55.7261L695.977 55.412L695.975 55.4165L696.926 55.7261ZM713.174 26.0508L713.933 26.7016L713.937 26.6975L713.174 26.0508ZM738.015 7.25195L737.609 6.33814L737.606 6.33955L738.015 7.25195ZM802.065 7.25195L801.656 8.16436L801.659 8.16576L802.065 7.25195ZM826.907 26.0508L826.14 26.6926L826.147 26.7016L826.907 26.0508ZM842.886 55.7261L841.932 56.0269L841.935 56.0357L842.886 55.7261ZM819.253 63.917L818.285 64.1686L818.287 64.1777L819.253 63.917ZM792.129 27.5278L791.697 28.4296L791.701 28.4318L792.129 27.5278ZM747.952 27.5278L747.519 26.6261L747.514 26.6285L747.952 27.5278ZM731.301 41.3584L730.507 40.7509L730.501 40.7584L731.301 41.3584ZM720.693 63.917L721.656 64.1866L720.693 63.917ZM720.693 138.575L719.73 138.842L719.73 138.845L720.693 138.575ZM731.436 161.268L730.637 161.87L730.642 161.876L730.647 161.883L731.436 161.268ZM748.22 175.099L747.783 175.998L747.788 176L748.22 175.099ZM809.048 161.268L808.244 160.674L808.242 160.676L809.048 161.268ZM819.387 138.575L820.355 138.827L820.356 138.824L819.387 138.575ZM847.525 95.0693V107.423H849.525V95.0693H847.525ZM847.525 107.423C847.525 122.022 845.7 135.077 842.066 146.6L843.974 147.201C847.68 135.449 849.525 122.186 849.525 107.423H847.525ZM842.066 146.6C838.43 158.128 833.208 167.898 826.412 175.93L827.939 177.222C834.929 168.961 840.269 158.947 843.974 147.201L842.066 146.6ZM826.412 175.93C819.615 183.962 811.457 190.091 801.928 194.326L802.74 196.154C812.547 191.795 820.949 185.482 827.939 177.222L826.412 175.93ZM801.925 194.328C792.491 198.56 781.891 200.686 770.107 200.686V202.686C782.135 202.686 793.02 200.515 802.743 196.153L801.925 194.328ZM770.107 200.686C758.687 200.686 748.219 198.561 738.69 194.326L737.878 196.154C747.685 200.513 758.433 202.686 770.107 202.686V200.686ZM738.693 194.328C729.251 190.092 721.043 183.96 714.063 175.92L712.553 177.231C719.717 185.484 728.16 191.795 737.874 196.153L738.693 194.328ZM714.067 175.925C707.181 167.891 701.824 158.118 698.01 146.586L696.111 147.214C699.995 158.958 705.471 168.968 712.549 177.226L714.067 175.925ZM698.01 146.586C694.2 135.068 692.287 122.018 692.287 107.423H690.287C690.287 122.19 692.222 135.458 696.111 147.214L698.01 146.586ZM692.287 107.423V95.0693H690.287V107.423H692.287ZM692.287 95.0693C692.287 80.4723 694.156 67.4652 697.877 56.0357L695.975 55.4165C692.177 67.0827 690.287 80.3044 690.287 95.0693H692.287ZM697.876 56.0401C701.69 44.5088 707.047 34.7359 713.933 26.7016L712.415 25.4C705.336 33.658 699.861 43.6686 695.977 55.412L697.876 56.0401ZM713.937 26.6975C720.825 18.5723 728.986 12.3984 738.424 8.16435L737.606 6.33955C727.887 10.6993 719.487 17.0579 712.411 25.4041L713.937 26.6975ZM738.421 8.16576C747.95 3.93074 758.418 1.80664 769.839 1.80664V-0.193359C758.164 -0.193359 747.416 1.97941 737.609 6.33814L738.421 8.16576ZM769.839 1.80664C781.623 1.80664 792.223 3.93249 801.656 8.16435L802.475 6.33955C792.751 1.97766 781.867 -0.193359 769.839 -0.193359V1.80664ZM801.659 8.16576C811.186 12.3997 819.343 18.5721 826.14 26.6926L827.674 25.409C820.684 17.0581 812.281 10.6979 802.472 6.33814L801.659 8.16576ZM826.147 26.7016C833.031 34.7322 838.297 44.5005 841.932 56.0269L843.839 55.4253C840.134 43.6769 834.747 33.6616 827.666 25.4L826.147 26.7016ZM841.935 56.0357C845.656 67.4652 847.525 80.4723 847.525 95.0693H849.525C849.525 80.3044 847.635 67.0827 843.837 55.4165L841.935 56.0357ZM823.878 107.423V94.8008H821.878V107.423H823.878ZM823.878 94.8008C823.878 83.0967 822.663 72.7115 820.218 63.6563L818.287 64.1777C820.677 73.0261 821.878 83.2301 821.878 94.8008H823.878ZM820.221 63.6654C817.867 54.614 814.372 46.9696 809.714 40.7584L808.114 41.9584C812.586 47.9217 815.984 55.3163 818.285 64.1686L820.221 63.6654ZM809.714 40.7584C805.054 34.5462 799.334 29.8292 792.556 26.6238L791.701 28.4318C798.173 31.4927 803.642 35.9961 808.114 41.9584L809.714 40.7584ZM792.561 26.6261C785.873 23.4193 778.291 21.8281 769.839 21.8281V23.8281C778.037 23.8281 785.315 25.3701 791.697 28.4295L792.561 26.6261ZM769.839 21.8281C761.649 21.8281 754.204 23.4214 747.519 26.6261L748.384 28.4295C754.769 25.368 761.915 23.8281 769.839 23.8281V21.8281ZM747.514 26.6285C740.919 29.8344 735.25 34.5487 730.507 40.7509L732.096 41.9658C736.663 35.9936 742.093 31.4875 748.389 28.4272L747.514 26.6285ZM730.501 40.7584C725.847 46.964 722.263 54.6019 719.73 63.6474L721.656 64.1866C724.137 55.3284 727.625 47.9273 732.101 41.9584L730.501 40.7584ZM719.73 63.6474C717.194 72.7057 715.934 83.0941 715.934 94.8008H717.934C717.934 83.2327 719.18 73.0319 721.656 64.1866L719.73 63.6474ZM715.934 94.8008V107.423H717.934V94.8008H715.934ZM715.934 107.423C715.934 119.219 717.194 129.696 719.73 138.842L721.657 138.308C719.18 129.372 717.934 119.081 717.934 107.423H715.934ZM719.73 138.845C722.264 147.893 725.893 155.576 730.637 161.87L732.234 160.666C727.668 154.607 724.136 147.161 721.656 138.306L719.73 138.845ZM730.647 161.883C735.478 168.081 741.19 172.793 747.783 175.998L748.657 174.199C742.36 171.138 736.882 166.63 732.224 160.653L730.647 161.883ZM747.788 176C754.472 179.205 761.918 180.798 770.107 180.798V178.798C762.184 178.798 755.038 177.258 748.653 174.197L747.788 176ZM770.107 180.798C778.648 180.798 786.274 179.208 792.964 176L792.099 174.197C785.72 177.256 778.397 178.798 770.107 178.798V180.798ZM792.964 176C799.653 172.793 805.285 168.074 809.854 161.86L808.242 160.676C803.859 166.637 798.48 171.138 792.099 174.197L792.964 176ZM809.852 161.862C814.507 155.564 818.002 147.878 820.355 138.827L818.419 138.324C816.118 147.176 812.719 154.618 808.244 160.674L809.852 161.862ZM820.356 138.824C822.709 129.684 823.878 119.213 823.878 107.423H821.878C821.878 119.086 820.721 129.384 818.419 138.326L820.356 138.824ZM1037.72 3.49219H1038.72V2.49219H1037.72V3.49219ZM1037.72 199V200H1038.72V199H1037.72ZM1011.67 199L1010.83 199.547L1011.13 200H1011.67V199ZM913.247 48.2065L914.084 47.66L912.247 44.8449V48.2065H913.247ZM913.247 199V200H914.247V199H913.247ZM887.332 199H886.332V200H887.332V199ZM887.332 3.49219V2.49219H886.332V3.49219H887.332ZM913.247 3.49219L914.084 2.94506L913.788 2.49219H913.247V3.49219ZM1012.08 154.688L1011.24 155.236L1013.08 158.046V154.688H1012.08ZM1012.08 3.49219V2.49219H1011.08V3.49219H1012.08ZM1036.72 3.49219V199H1038.72V3.49219H1036.72ZM1037.72 198H1011.67V200H1037.72V198ZM1012.51 198.453L914.084 47.66L912.41 48.7531L1010.83 199.547L1012.51 198.453ZM912.247 48.2065V199H914.247V48.2065H912.247ZM913.247 198H887.332V200H913.247V198ZM888.332 199V3.49219H886.332V199H888.332ZM887.332 4.49219H913.247V2.49219H887.332V4.49219ZM912.41 4.03932L1011.24 155.236L1012.91 154.141L914.084 2.94506L912.41 4.03932ZM1013.08 154.688V3.49219H1011.08V154.688H1013.08ZM1012.08 4.49219H1037.72V2.49219H1012.08V4.49219Z" fill="#585858" mask="url(#path-1-outside-1_3_3)"/>
</svg>
