<svg width="32" height="18" viewBox="0 0 32 18" fill="none" xmlns="http://www.w3.org/2000/svg">
<path fill-rule="evenodd" clip-rule="evenodd" d="M30.0945 3.71828L29.7562 12.9828C29.5587 12.2607 26.2206 6.3848 25.5775 5.22905C23.782 2.00236 23.7811 1.8914 21.5 5.90509C20.8046 7.12867 20.1332 8.25873 19.4487 9.45672L16.3917 14.7223C14.6945 17.5886 16.2503 17.4153 18.321 17.4102L24.6356 17.4159C25.7589 17.4302 26.6331 17.396 26.6444 16.225C25.963 15.1102 24.4187 15.4702 22.9124 15.4702C21.3804 15.4702 19.8484 15.4702 18.3164 15.4702L23.7253 6.03907C24.3083 6.59566 26.429 10.8038 27.0096 11.8385C27.5624 12.8236 28.0393 13.7338 28.588 14.7113C29.1103 15.642 29.5608 17.2109 30.8001 17.1452C32.3546 17.0627 31.9535 15.2326 31.9535 13.7831L31.9578 4.72944C31.9682 2.3072 30.385 2.50666 30.0944 3.71828H30.0945Z" fill="white"/>
<path fill-rule="evenodd" clip-rule="evenodd" d="M0.00625076 11.6073C-0.000446483 13.0345 2.14022 13.6127 2.11756 10.7727C2.10505 9.19963 1.97111 6.84699 2.14725 5.3578C4.819 5.30461 7.00666 5.06536 8.79605 6.51154C11.7029 8.8606 11.1622 15.0746 5.12373 15.05C4.27172 15.0466 1.8087 14.9385 1.14244 15.1076C-0.142651 15.4335 -0.179598 16.8387 1.31445 17.1557C2.90761 17.4937 7.16839 17.1973 8.52961 16.6221C15.5284 13.6645 13.1293 3.4937 6.4711 3.27424L0 3.25122L0.00625076 11.6076V11.6073Z" fill="white"/>
<path fill-rule="evenodd" clip-rule="evenodd" d="M15.7023 8.264C14.6495 8.76293 15.1906 10.5723 16.5407 10.0263C17.6212 9.58938 16.9906 7.65344 15.7023 8.264Z" fill="white"/>
<path fill-rule="evenodd" clip-rule="evenodd" d="M30.5363 0.119183C30.1441 0.297301 29.8372 0.649626 30.0643 1.3003C30.2416 1.80873 30.7923 2.12843 31.4553 1.82047C32.4349 1.36567 31.8597 -0.482105 30.5363 0.119071V0.119183Z" fill="white"/>
</svg>
